<?xml version="1.0" encoding="UTF-8"?>
<!DOCTYPE svg PUBLIC "-//W3C//DTD SVG 1.1//EN" "http://www.w3.org/Graphics/SVG/1.1/DTD/svg11.dtd">
<!-- Creator: CorelDRAW X8 -->
<svg xmlns="http://www.w3.org/2000/svg" xml:space="preserve" width="15mm" height="15mm" version="1.1" style="shape-rendering:geometricPrecision; text-rendering:geometricPrecision; image-rendering:optimizeQuality; fill-rule:evenodd; clip-rule:evenodd"
viewBox="0 0 1500 1500"
 xmlns:xlink="http://www.w3.org/1999/xlink">
 <defs>
  <style type="text/css">
   <![CDATA[
    .fil0 {fill:black;fill-rule:nonzero}
   ]]>
  </style>
 </defs>
 <g id="Capa_x0020_1">
  <metadata id="CorelCorpID_0Corel-Layer"/>
  <g id="_2405290560976">
   <path class="fil0" d="M736 933l0 -292 744 0c1,10 2,20 2,32 0,11 0,27 0,50 0,239 -63,424 -189,556 -126,131 -304,197 -533,197 -112,0 -212,-16 -300,-50 -87,-34 -165,-86 -234,-155 -66,-67 -117,-145 -154,-236 -36,-91 -54,-186 -54,-285 0,-104 18,-199 53,-286 35,-87 88,-165 158,-234 70,-68 150,-119 240,-154 90,-35 187,-52 291,-52l0 318c-113,0 -203,38 -268,113 -65,76 -97,179 -97,310 0,132 32,236 97,312 65,76 155,114 268,114 96,0 176,-24 241,-71 64,-47 102,-109 112,-187l-377 0z"/>
   <path class="fil0" d="M919 56l0 0c132,35 241,92 328,171 87,79 152,179 193,300l-358 67c-24,-62 -56,-112 -96,-150 -41,-38 -91,-65 -149,-81l82 -307z"/>
  </g>
 </g>
</svg>
