<?xml version="1.0" encoding="UTF-8"?>
<!DOCTYPE svg PUBLIC "-//W3C//DTD SVG 1.1//EN" "http://www.w3.org/Graphics/SVG/1.1/DTD/svg11.dtd">
<!-- Creator: CorelDRAW X8 -->
<svg xmlns="http://www.w3.org/2000/svg" xml:space="preserve" width="15.644mm" height="15.644mm" version="1.1" style="shape-rendering:geometricPrecision; text-rendering:geometricPrecision; image-rendering:optimizeQuality; fill-rule:evenodd; clip-rule:evenodd"
viewBox="0 0 1564 1564"
 xmlns:xlink="http://www.w3.org/1999/xlink">
 <defs>
  <style type="text/css">
   <![CDATA[
    .fil0 {fill:#F4F4F4;fill-rule:nonzero}
   ]]>
  </style>
 </defs>
 <g id="Capa_x0020_1">
  <metadata id="CorelCorpID_0Corel-Layer"/>
  <g id="_1796965137968">
   <path class="fil0" d="M769 965l0 -292 743 0c1,10 2,21 2,32 0,11 0,28 0,50 0,239 -63,424 -189,556 -126,132 -304,198 -532,198 -113,0 -213,-17 -300,-51 -88,-34 -166,-86 -235,-155 -66,-67 -117,-145 -154,-236 -36,-91 -54,-185 -54,-285 0,-103 18,-199 53,-286 35,-87 88,-165 158,-234 70,-68 150,-119 240,-154 90,-35 187,-52 291,-52l0 318c-113,0 -202,38 -267,114 -66,75 -98,178 -98,309 0,132 32,236 98,312 65,76 154,114 267,114 96,0 177,-24 241,-70 64,-47 102,-110 112,-188l-376 0z"/>
   <path class="fil0" d="M951 88l1 0c131,35 240,92 327,171 87,79 152,179 193,300l-357 67c-24,-62 -57,-112 -97,-150 -41,-38 -90,-65 -149,-80l82 -308z"/>
  </g>
 </g>
</svg>
